<?xml version="1.0"?>
<svg xmlns="http://www.w3.org/2000/svg" height="50px" viewBox="0 -77 512 512" width="50px">
  <path d="m25.601562 8.53125h460.796876c9.425781 0 17.070312 7.644531 17.070312 17.070312v307.199219c0 9.425781-7.644531 17.066407-17.070312 17.066407h-460.796876c-9.425781 0-17.070312-7.640626-17.070312-17.066407v-307.199219c0-9.425781 7.644531-17.070312 17.070312-17.070312zm0 0" fill="#c52828"/>
  <path d="m25.601562 8.53125h435.199219c9.425781 0 17.066407 7.644531 17.066407 17.070312v307.199219c0 9.425781-7.640626 17.066407-17.066407 17.066407h-435.199219c-9.425781 0-17.070312-7.640626-17.070312-17.066407v-307.199219c0-9.425781 7.644531-17.070312 17.070312-17.070312zm0 0" fill="#f44335"/>
  <path d="m341.761719 290.132812h161.707031v-221.867187h-494.9375v221.867187zm0 0" fill="#ffb301"/>
  <path d="m324.523438 290.132812h153.34375v-221.867187h-469.335938v221.867187zm0 0" fill="#fec108"/>
  <path d="m128 162.132812h34.132812v34.132813h-34.132812zm0 0" fill="#fff"/>
  <path d="m93.867188 162.132812h34.132812v34.132813h-34.132812zm0 0" fill="#f44335"/>
  <path d="m162.132812 196.265625v17.070313c0 14.136718-11.460937 25.597656-25.601562 25.597656h-17.066406c-14.136719 0-25.597656-11.460938-25.597656-25.597656v-17.070313zm0 0" fill="#fff"/>
  <path d="m162.132812 196.265625v17.070313c0 14.136718-5.734374 25.597656-12.800781 25.597656h-21.332031v-42.667969zm0 0" fill="#f44335"/>
  <path d="m128 145.066406v17.066406h-34.132812c-4.714844 0-8.53125-3.820312-8.53125-8.53125v-8.535156c.027343-9.414062 7.652343-17.039062 17.066406-17.066406h8.53125c9.425781 0 17.066406 7.640625 17.066406 17.066406zm0 0" fill="#f0c419"/>
  <path d="m170.667969 145.066406v8.535156c0 4.710938-3.820313 8.53125-8.535157 8.53125h-34.132812v-17.066406c0-9.425781 7.640625-17.066406 17.066406-17.066406h8.535156c9.414063.027344 17.039063 7.652344 17.066407 17.066406zm0 0" fill="#f0c419"/>
  <path d="m68.265625 247.46875h-17.066406c-4.710938 0-8.53125-3.824219-8.53125-8.535156 0-4.710938 3.820312-8.53125 8.53125-8.53125v-68.269532c0-4.710937 3.820312-8.53125 8.535156-8.53125 4.710937 0 8.53125 3.820313 8.53125 8.53125v68.265626c4.714844 0 8.535156 3.824218 8.535156 8.535156 0 4.710937-3.820312 8.535156-8.535156 8.535156zm0 0" fill="#fff"/>
  <path d="m204.800781 247.46875h-17.066406c-4.714844 0-8.535156-3.824219-8.535156-8.535156 0-4.710938 3.820312-8.53125 8.535156-8.53125v-68.269532c0-4.710937 3.820313-8.53125 8.53125-8.53125s8.535156 3.820313 8.535156 8.53125v68.265626c4.710938 0 8.53125 3.824218 8.53125 8.535156 0 4.710937-3.820312 8.535156-8.53125 8.535156zm0 0" fill="#fff"/>
  <path d="m153.601562 119.46875h-8.535156c-2.914062.027344-5.800781.558594-8.53125 1.566406v-10.101562c0-4.710938-3.820312-8.53125-8.535156-8.53125-4.710938 0-8.53125 3.820312-8.53125 8.53125v10.101562c-2.734375-1.007812-5.621094-1.539062-8.535156-1.566406h-8.535156c-14.136719 0-25.597657 11.460938-25.597657 25.597656v8.535156c.015625 6.070313 3.269531 11.667969 8.53125 14.691407v45.039062c0 18.851563 15.28125 34.132813 34.132813 34.132813h17.066406c18.851562 0 34.132812-15.28125 34.132812-34.132813v-45.039062c5.265626-3.023438 8.515626-8.621094 8.535157-14.691407v-8.535156c0-14.136718-11.460938-25.597656-25.597657-25.597656zm-8.535156 17.0625h8.535156c4.710938 0 8.53125 3.824219 8.53125 8.535156v8.53125h-25.601562v-8.53125c0-4.710937 3.824219-8.535156 8.535156-8.535156zm8.535156 51.203125h-17.070312v-17.070313h17.070312zm-34.132812 0h-17.070312v-17.070313h17.070312zm-25.601562-42.667969c0-4.710937 3.820312-8.53125 8.53125-8.53125h8.535156c4.710937 0 8.53125 3.820313 8.53125 8.53125v8.535156h-25.597656zm8.53125 68.265625v-8.53125h17.070312v25.597657c-9.429688 0-17.070312-7.640626-17.070312-17.066407zm34.132812 17.066407v-25.597657h17.070312v8.53125c0 9.425781-7.640624 17.066407-17.070312 17.066407zm0 0" fill="#c52828"/>
  <path d="m486.398438 0h-460.796876c-14.140624 0-25.601562 11.460938-25.601562 25.601562v307.199219c0 14.136719 11.460938 25.597657 25.601562 25.597657h460.796876c14.140624 0 25.601562-11.460938 25.601562-25.597657v-307.199219c0-14.140624-11.460938-25.601562-25.601562-25.601562zm-460.796876 17.066406h460.796876c4.714843 0 8.535156 3.820313 8.535156 8.535156v34.132813h-477.867188v-34.132813c0-4.714843 3.820313-8.535156 8.535156-8.535156zm469.332032 264.535156h-477.867188v-204.800781h477.867188zm-8.535156 59.730469h-460.796876c-4.714843 0-8.535156-3.820312-8.535156-8.53125v-34.132812h477.867188v34.132812c0 4.710938-3.820313 8.53125-8.535156 8.53125zm0 0"/>
  <path d="m51.199219 247.46875h17.066406c4.714844 0 8.535156-3.824219 8.535156-8.535156 0-4.710938-3.820312-8.53125-8.535156-8.53125v-68.269532c0-4.710937-3.820313-8.53125-8.53125-8.53125s-8.535156 3.820313-8.535156 8.53125v68.265626c-4.710938 0-8.53125 3.824218-8.53125 8.535156 0 4.710937 3.820312 8.535156 8.53125 8.535156zm0 0"/>
  <path d="m187.734375 247.46875h17.066406c4.710938 0 8.53125-3.824219 8.53125-8.535156 0-4.710938-3.820312-8.53125-8.53125-8.53125v-68.269532c0-4.710937-3.820312-8.53125-8.535156-8.53125-4.710937 0-8.53125 3.820313-8.53125 8.53125v68.265626c-4.714844 0-8.535156 3.824218-8.535156 8.535156 0 4.710937 3.820312 8.535156 8.535156 8.535156zm0 0"/>
  <path d="m85.332031 168.292969v45.039062c0 18.851563 15.28125 34.132813 34.132813 34.132813h17.066406c18.851562 0 34.132812-15.28125 34.132812-34.132813v-45.039062c5.265626-3.023438 8.515626-8.621094 8.535157-14.691407v-8.535156c0-14.136718-11.460938-25.597656-25.601563-25.597656h-8.53125c-2.914062.027344-5.800781.558594-8.535156 1.566406v-10.101562c0-4.710938-3.820312-8.53125-8.53125-8.53125-4.714844 0-8.53125 3.820312-8.53125 8.53125v10.101562c-2.734375-1.007812-5.621094-1.539062-8.535156-1.566406h-8.535156c-14.136719 0-25.597657 11.460938-25.597657 25.597656v8.535156c.015625 6.070313 3.269531 11.667969 8.53125 14.691407zm68.269531 19.441406h-17.070312v-17.070313h17.070312zm-34.132812 0h-17.070312v-17.070313h17.070312zm-17.070312 25.597656v-8.53125h17.070312v25.597657c-9.429688 0-17.070312-7.640626-17.070312-17.066407zm34.132812 17.066407v-25.597657h17.070312v8.53125c0 9.425781-7.640624 17.066407-17.070312 17.066407zm8.535156-93.867188h8.535156c4.710938 0 8.53125 3.824219 8.53125 8.535156v8.53125h-25.601562v-8.53125c0-4.710937 3.824219-8.535156 8.535156-8.535156zm-51.199218 8.535156c0-4.710937 3.820312-8.53125 8.53125-8.53125h8.535156c4.710937 0 8.53125 3.820313 8.53125 8.53125v8.535156h-25.597656zm0 0"/>
</svg>
